# xmcd
# 
# Track frame offsets:
#     150
#     14232
#     27478
#     44408
#     58052
#     73971
#     84743
#     101990
#     119398
#     131676
#     147131
# 
# Disc length: 2137
# 
# Revision: 0
# Processed by: cddbd v1.5.2PL0 Copyright (c) Steve Scherf et al.
# Submitted via: BonkEnc v1.0
# 
DISCID=ae08570b
DTITLE=BANDA CANÇÃO - BANDA CANÇÃO
DYEAR=0
DGENRE=Blues
TTITLE0=01 Faixa 
TTITLE1=02 Faixa 
TTITLE2=03 Faixa 
TTITLE3=04 Faixa 
TTITLE4=06 Faixa 
TTITLE5=07 Faixa 
TTITLE6=08 Faixa 
TTITLE7=09 Faixa 
TTITLE8=10 Faixa 
TTITLE9=11 Faixa 
TTITLE10=12 Faixa 
EXTD=
EXTT0=
EXTT1=
EXTT2=
EXTT3=
EXTT4=
EXTT5=
EXTT6=
EXTT7=
EXTT8=
EXTT9=
EXTT10=
PLAYORDER=
